<svg width="1440" height="1024" viewBox="0 0 1440 1024" fill="none" xmlns="http://www.w3.org/2000/svg">
<g clip-path="url(#clip0_6_131)">
<rect width="1440" height="1024" fill="url(#paint0_radial_6_131)"/>
<g clip-path="url(#clip1_6_131)">
<rect width="3195.26" height="1348" transform="translate(-878)" fill="#121214"/>
<g opacity="0.1">
<path fill-rule="evenodd" clip-rule="evenodd" d="M459.107 365.113C459.107 365.113 509.141 397.827 523.129 409.813C537.117 421.8 583.062 427.133 592.062 430.465C601.063 433.797 622.635 463.774 622.635 463.774C622.635 463.774 635.065 485.941 638.04 501.833C641.026 517.725 680.923 535.715 680.923 535.715L718.776 551.705C718.776 551.705 660.12 485.757 653.575 469.778C647.019 453.789 655.046 439.141 638.051 430.476C621.044 421.821 579.708 407.834 575.402 391.844C571.097 375.855 503.819 319.903 482.507 309.918C461.195 299.922 397.984 275.949 397.984 275.949C397.984 275.949 439.05 343.152 459.118 365.134L459.107 365.113Z" fill="#633BBC"/>
<path fill-rule="evenodd" clip-rule="evenodd" d="M189.009 -33.721C189.009 -33.721 282.369 35.948 325.415 54.3065C325.415 54.3065 379.257 50.2821 386.538 54.3065C393.818 58.3308 425.797 78.1714 429.107 85.8955C432.418 93.6089 434.624 110.15 441.234 117.874C447.855 125.587 507.388 154.256 528.342 157.566C549.297 160.876 600.013 170.797 609.933 177.417C619.853 184.038 616.554 199.465 622.06 207.189C627.578 214.902 660.649 228.144 673.879 236.961C687.11 245.777 728.446 243.581 740.855 249.088C753.263 254.605 779.724 271.135 779.724 271.135L789.634 279.952C789.634 279.952 784.106 298.7 789.634 304.206C795.162 309.724 818.313 314.127 818.313 314.127C818.313 314.127 800.668 296.482 800.668 285.458C800.668 274.435 789.634 265.607 789.634 265.607C789.634 265.607 734.515 240.249 726.791 233.629C719.078 227.008 649.603 169.672 644.097 159.751C638.58 149.831 626.453 122.266 619.843 114.542C613.222 106.829 550.379 90.2877 534.942 83.667C519.504 77.0463 499.642 57.2057 490.273 40.6647C480.916 24.1237 463.271 -21.6588 457.754 -27.6953C452.236 -33.7319 440.109 -33.7319 440.109 -33.7319H188.987L189.009 -33.721Z" fill="#633BBC"/>
<path fill-rule="evenodd" clip-rule="evenodd" d="M1120.24 474.032C1120.24 474.032 1170.27 506.746 1184.26 518.732C1198.25 530.719 1244.2 536.052 1253.2 539.384C1262.2 542.716 1283.77 572.694 1283.77 572.694C1283.77 572.694 1296.2 594.86 1299.17 610.752C1302.16 626.644 1342.06 644.634 1342.06 644.634L1379.91 660.624C1379.91 660.624 1321.25 594.676 1314.71 578.698C1308.15 562.708 1316.18 548.061 1299.18 539.395C1282.18 530.741 1240.84 516.753 1236.54 500.764C1232.23 484.774 1164.95 428.823 1143.64 418.837C1122.33 408.841 1059.12 384.868 1059.12 384.868C1059.12 384.868 1100.18 452.071 1120.25 474.053L1120.24 474.032Z" fill="#633BBC"/>
<path fill-rule="evenodd" clip-rule="evenodd" d="M1132.95 107.932C1132.95 107.932 1199.43 167.476 1238.93 190.626C1278.44 213.777 1300.1 203.857 1300.1 203.857C1300.1 203.857 1334.99 214.037 1356.33 230.448C1377.68 246.859 1374.37 276.631 1387.6 293.172C1400.83 309.713 1455.41 298.138 1455.41 298.138L1537.19 388.48L1591.25 445.33C1591.25 445.33 1532.9 369.245 1523.1 352.715C1513.29 336.174 1445.49 240.249 1432.24 223.708C1419.01 207.167 1400.82 210.478 1387.59 187.327C1374.36 164.176 1359.47 137.704 1337.96 117.863C1316.47 98.012 1271.85 68.2404 1247.85 55.0098C1223.84 41.7791 1185.81 28.5485 1185.81 28.5485L1119.65 13.6627L1055.15 -21.5938H759.105C759.105 -21.5938 904.317 78.1715 970.308 102.978C995.276 112.357 1132.94 107.943 1132.94 107.943L1132.95 107.932Z" fill="#633BBC"/>
<path fill-rule="evenodd" clip-rule="evenodd" d="M1394.64 -11.554C1394.64 -11.554 1430.62 39.7134 1456.39 54.5992C1482.15 69.485 1514.72 75.8245 1526.9 90.7103C1539.09 105.596 1586.22 139.63 1586.22 139.63L1653.9 167.617C1653.9 167.617 1561.76 89.7259 1551.67 71.6054C1541.57 53.4958 1514.47 38.6099 1514.47 38.6099L1394.64 -11.554Z" fill="#633BBC"/>
<path fill-rule="evenodd" clip-rule="evenodd" d="M-915.447 291.151C-915.447 291.151 -799.682 374.895 -776.444 395.039C-753.207 415.182 -690.786 413.657 -670.123 434.795C-649.461 455.934 -612.408 465.194 -586.466 493.917C-560.524 522.628 -474.606 543.788 -445.322 577.671C-416.026 611.553 -366.208 625.433 -341.099 640.73C-315.99 656.027 -238.175 693.079 -238.175 693.079C-238.175 693.079 -333.17 648.617 -348.661 604.154C-364.153 559.691 -355.358 504.28 -355.358 504.28C-355.358 504.28 -335.452 499.921 -355.358 463.106C-375.263 426.292 -358.636 402.828 -383.626 371.952C-408.616 341.077 -420.57 285.494 -403.477 259.562C-386.384 233.631 -346.562 157.493 -355.358 112.197C-364.153 66.8906 -286.846 33.549 -286.846 33.549C-286.846 33.549 -169.945 44.6701 -155.892 63.1908C-141.839 81.7224 -38.9583 112.197 -38.9583 112.197C-38.9583 112.197 43.249 116.741 54.4567 112.197C65.6535 107.654 100.888 137.295 129.589 163.227C158.289 189.169 163.883 173.363 203.737 201.123C243.602 228.882 251.218 270.792 274.087 291.162C274.087 291.162 248.491 246.429 240.443 201.123C240.443 201.123 281.39 205.634 311.031 213.044C340.673 220.455 354.877 218.81 375.356 234.453C395.835 250.097 418.38 259.973 418.38 259.973C418.38 259.973 383.697 228.687 375.356 211.389C367.015 194.102 360.427 176.803 349.728 170.215C339.029 163.627 217.919 133.076 186.893 118.71C155.866 104.343 129.589 57.0028 129.589 57.0028C129.589 57.0028 58.5784 -42.7625 13.7803 -44.277C-31.0177 -45.7915 -109.547 -67.3522 -138.139 -87.5064C-166.732 -107.661 -261.088 -222.171 -261.088 -222.171H-899.696L-915.447 291.151Z" fill="#633BBC"/>
<path fill-rule="evenodd" clip-rule="evenodd" d="M108.934 491.641C108.934 491.641 158.968 524.355 172.956 536.342C186.944 548.328 232.888 553.662 241.889 556.994C250.89 560.326 272.461 590.303 272.461 590.303C272.461 590.303 284.891 612.469 287.866 628.361C290.852 644.253 330.75 662.244 330.75 662.244L368.603 678.233C368.603 678.233 309.946 612.285 303.401 596.307C296.846 580.318 304.873 565.67 287.877 557.005C270.871 548.35 229.535 534.362 225.229 518.373C220.924 502.384 153.645 446.432 132.333 436.447C111.022 426.451 47.811 402.478 47.811 402.478C47.811 402.478 88.8769 469.68 108.945 491.663L108.934 491.641Z" fill="#633BBC"/>
</g>
<path d="M1423.88 22.8575C1422.37 22.8575 1421.14 21.4597 1421.14 19.7354C1421.14 18.011 1422.37 16.6131 1423.88 16.6131C1425.4 16.6131 1426.63 18.011 1426.63 19.7354C1426.63 21.4597 1425.4 22.8575 1423.88 22.8575Z" fill="white"/>
<path d="M1338.23 14.545C1338.23 15.6735 1339.05 16.6138 1340.07 16.6138C1341.08 16.6138 1341.91 15.6735 1341.91 14.545C1341.91 13.4165 1341.08 12.4761 1340.07 12.4761C1339.05 12.4761 1338.23 13.4165 1338.23 14.545Z" fill="white"/>
<path d="M1386.74 379.24C1385.38 378.488 1383.73 379.127 1383.05 380.669C1382.37 382.212 1382.94 384.093 1384.33 384.845C1385.72 385.597 1387.34 384.958 1388.01 383.415C1388.69 381.873 1388.13 379.992 1386.74 379.24Z" fill="white"/>
<path d="M1321.46 96.6633C1320.56 96.1743 1319.43 96.5881 1318.98 97.6038C1318.52 98.6194 1318.9 99.8607 1319.8 100.387C1320.71 100.876 1321.83 100.463 1322.28 99.447C1322.74 98.4313 1322.36 97.19 1321.46 96.6633Z" fill="white"/>
<g opacity="0.64">
<path d="M1409.65 141.238C1410.59 141.238 1411.34 140.335 1411.34 139.245C1411.34 138.154 1410.52 137.326 1409.58 137.364C1408.64 137.364 1407.88 138.267 1407.88 139.357C1407.88 140.448 1408.71 141.276 1409.65 141.238Z" fill="white"/>
</g>
<g opacity="0.64">
</g>
<g opacity="0.64">
<path d="M564.574 252.065C565.176 252.704 566.191 252.855 566.83 252.328C567.47 251.839 567.507 250.899 566.868 250.221C566.266 249.582 565.251 249.432 564.612 249.958C563.973 250.447 563.935 251.388 564.574 252.065Z" fill="white"/>
<path d="M467.838 235.699C468.252 236.15 468.928 236.226 469.342 235.887C469.756 235.549 469.793 234.909 469.342 234.495C468.928 234.044 468.252 233.969 467.838 234.307C467.425 234.646 467.387 235.285 467.838 235.699Z" fill="white"/>
<path d="M562.222 358.822C561.395 358.972 560.906 359.762 561.17 360.59C561.433 361.417 562.335 361.906 563.162 361.756C563.99 361.605 564.478 360.816 564.215 359.988C563.952 359.16 563.05 358.671 562.222 358.822Z" fill="white"/>
<path d="M361.229 348.517C360.665 348.63 360.365 349.157 360.553 349.684C360.741 350.21 361.342 350.586 361.869 350.474C362.433 350.361 362.733 349.834 362.545 349.307C362.357 348.781 361.756 348.405 361.229 348.517Z" fill="white"/>
<path d="M695.937 246.424C695.223 247.327 695.449 248.681 696.501 249.471C697.554 250.261 698.983 250.186 699.697 249.283C700.412 248.38 700.186 247.026 699.133 246.236C698.081 245.446 696.652 245.522 695.937 246.424Z" fill="white"/>
</g>
<g opacity="0.64">
<path d="M98.806 352.301C98.242 352.94 98.2044 353.956 98.806 354.595C99.4076 355.235 100.272 355.272 100.874 354.595C101.438 353.956 101.476 352.94 100.874 352.301C100.31 351.661 99.4076 351.624 98.806 352.301Z" fill="white"/>
<path d="M104.252 253.06C103.876 253.474 103.876 254.151 104.252 254.602C104.628 255.016 105.23 255.054 105.606 254.602C105.982 254.188 105.982 253.474 105.606 253.06C105.23 252.646 104.628 252.608 104.252 253.06Z" fill="white"/>
<path d="M75.2515 443.657C74.3115 442.905 72.9954 443.205 72.3562 444.259C71.717 445.312 71.9427 446.779 72.8827 447.531C73.8227 448.284 75.1387 447.983 75.778 446.93C76.4172 445.876 76.1915 444.409 75.2515 443.657Z" fill="white"/>
</g>
<g opacity="0.64">
<path d="M377.868 104.625C377.755 105.377 378.206 106.054 378.846 106.205C379.485 106.318 380.124 105.829 380.237 105.114C380.35 104.362 379.898 103.685 379.259 103.534C378.62 103.384 377.981 103.91 377.868 104.625Z" fill="white"/>
<path d="M342.686 95.5262C342.61 96.0152 342.911 96.4666 343.325 96.5794C343.776 96.6547 344.19 96.3162 344.265 95.8272C344.34 95.3381 344.039 94.8867 343.626 94.7739C343.174 94.6987 342.761 95.0371 342.686 95.5262Z" fill="white"/>
<path d="M252.816 96.1643C251.839 95.3743 250.485 95.6376 249.808 96.7285C249.094 97.8194 249.319 99.3241 250.297 100.114C251.275 100.904 252.628 100.641 253.305 99.5498C254.019 98.4589 253.794 96.9542 252.816 96.1643Z" fill="white"/>
<path d="M293.725 39.3218C293.086 38.7952 292.183 38.9457 291.695 39.698C291.243 40.4128 291.356 41.4284 292.033 41.9551C292.672 42.4817 293.575 42.3312 294.063 41.5789C294.552 40.8265 294.402 39.8485 293.725 39.3218Z" fill="white"/>
<path d="M473.196 212.626C472.256 212.626 471.503 213.529 471.503 214.62C471.503 215.711 472.331 216.538 473.271 216.501C474.211 216.501 474.963 215.598 474.963 214.507C474.963 213.416 474.136 212.589 473.196 212.626Z" fill="white"/>
<path d="M188.199 342.413C186.994 342.413 186.018 341.318 186.018 339.968C186.018 338.618 186.994 337.523 188.199 337.523C189.403 337.523 190.38 338.618 190.38 339.968C190.38 341.318 189.403 342.413 188.199 342.413Z" fill="white"/>
<path d="M78.634 45.5307C78.634 42.8223 76.6787 40.6406 74.2723 40.6406C71.8659 40.6406 69.9108 42.8223 69.9108 45.5307C69.9108 48.2391 71.8659 50.421 74.2723 50.421C76.6787 50.421 78.634 48.2391 78.634 45.5307Z" fill="white"/>
</g>
<g opacity="0.64">
<path d="M328.747 609.747C328.446 608.129 327.318 607.038 326.266 607.377C325.213 607.678 324.574 609.295 324.912 610.913C325.25 612.53 326.341 613.621 327.394 613.283C328.446 612.944 329.086 611.364 328.747 609.747Z" fill="white"/>
<path d="M387.673 597.368C387.485 596.277 386.733 595.562 386.019 595.788C385.305 596.014 384.891 597.067 385.117 598.158C385.305 599.249 386.056 599.964 386.771 599.738C387.485 599.512 387.899 598.459 387.673 597.368Z" fill="white"/>
<path d="M522.698 516.01C524.653 516.8 526.533 515.069 526.871 512.173C527.21 509.276 525.894 506.304 523.939 505.515C521.983 504.725 520.103 506.455 519.765 509.352C519.426 512.248 520.742 515.22 522.698 516.01Z" fill="white"/>
<path d="M498.072 670.759C499.388 671.285 500.629 670.119 500.854 668.201C501.08 666.282 500.215 664.289 498.899 663.762C497.583 663.235 496.342 664.401 496.117 666.32C495.891 668.238 496.756 670.232 498.072 670.759Z" fill="white"/>
</g>
<g opacity="0.64">
<path d="M963.883 376.907C964.522 376.493 964.748 375.703 964.41 375.139C964.071 374.575 963.282 374.424 962.642 374.838C962.003 375.252 961.778 376.042 962.116 376.606C962.454 377.17 963.244 377.321 963.883 376.907Z" fill="white"/>
<path d="M980.385 409.147C980.799 408.883 980.949 408.357 980.724 407.98C980.498 407.604 979.972 407.529 979.558 407.792C979.145 408.056 978.994 408.582 979.22 408.959C979.445 409.335 979.972 409.41 980.385 409.147Z" fill="white"/>
<path d="M1040.55 475.574C1040.59 476.816 1041.68 477.643 1042.96 477.455C1044.24 477.267 1045.25 476.064 1045.18 474.822C1045.14 473.581 1044.05 472.753 1042.77 472.941C1041.49 473.129 1040.48 474.333 1040.55 475.574Z" fill="white"/>
<path d="M970.687 482.876C970.687 483.704 971.439 484.268 972.304 484.117C973.169 483.967 973.808 483.214 973.808 482.387C973.808 481.559 973.056 480.995 972.191 481.146C971.326 481.296 970.687 482.048 970.687 482.876Z" fill="white"/>
<path d="M981.644 234.3C982.283 234.977 983.487 234.977 984.276 234.225C985.066 233.51 985.178 232.344 984.539 231.629C983.9 230.952 982.697 230.952 981.907 231.704C981.118 232.419 981.005 233.585 981.644 234.3Z" fill="white"/>
<path d="M1265.2 360.133C1264.19 361.035 1264 362.465 1264.79 363.368C1265.58 364.271 1267.05 364.271 1268.06 363.368C1269.08 362.465 1269.26 361.035 1268.47 360.133C1267.69 359.23 1266.22 359.23 1265.2 360.133Z" fill="white"/>
</g>
<g opacity="0.64">
</g>
<path d="M1109.53 148.007C1108.43 145.562 1105.8 144.584 1103.62 145.825C1101.44 147.067 1100.58 150.039 1101.67 152.484C1102.76 154.929 1105.39 155.907 1107.57 154.665C1109.75 153.424 1110.62 150.452 1109.53 148.007Z" fill="white"/>
<path d="M795.714 150.905C797.255 150.905 798.458 149.475 798.458 147.745C798.458 146.014 797.18 144.66 795.676 144.66C794.134 144.66 792.931 146.09 792.931 147.82C792.931 149.55 794.21 150.905 795.714 150.905Z" fill="white"/>
<path d="M1091.6 249.049C1092.62 249.049 1093.44 248.108 1093.4 246.942C1093.4 245.814 1092.54 244.873 1091.52 244.911C1090.51 244.911 1089.68 245.851 1089.72 247.018C1089.72 248.146 1090.58 249.087 1091.6 249.049Z" fill="white"/>
<path d="M466.845 264.469C465.868 262.287 463.499 261.422 461.544 262.513C459.588 263.603 458.837 266.274 459.814 268.456C460.792 270.638 463.16 271.503 465.116 270.412C467.071 269.321 467.823 266.65 466.845 264.469Z" fill="white"/>
<path d="M162.972 535.761C164.1 535.761 165.002 534.708 165.002 533.429C165.002 532.15 164.062 531.134 162.934 531.134C161.806 531.134 160.904 532.188 160.904 533.467C160.904 534.745 161.844 535.761 162.972 535.761Z" fill="white"/>
<path d="M289.626 151.549C291.807 151.549 293.536 149.517 293.498 147.072C293.498 144.627 291.694 142.671 289.513 142.709C287.332 142.746 285.603 144.74 285.64 147.185C285.64 149.63 287.445 151.586 289.626 151.549Z" fill="white"/>
<path d="M8.91309 391.311C11.0939 391.311 12.8236 389.28 12.786 386.835C12.786 384.39 10.9812 382.434 8.80041 382.471C6.61959 382.509 4.88987 384.503 4.92747 386.948C4.92747 389.393 6.73228 391.349 8.91309 391.311Z" fill="white"/>
<g opacity="0.4" filter="url(#filter0_f_6_131)">
<ellipse cx="689.049" cy="29.9556" rx="1473.44" ry="742.648" fill="#633BBC"/>
</g>
</g>
<rect opacity="0.8" width="2396.44" height="1228.8" transform="matrix(1 0 0 -1 -309.75 946.213)" fill="url(#paint1_linear_6_131)"/>
</g>
<defs>
<filter id="filter0_f_6_131" x="-1533.28" y="-1461.58" width="4444.66" height="2983.07" filterUnits="userSpaceOnUse" color-interpolation-filters="sRGB">
<feFlood flood-opacity="0" result="BackgroundImageFix"/>
<feBlend mode="normal" in="SourceGraphic" in2="BackgroundImageFix" result="shape"/>
<feGaussianBlur stdDeviation="374.444" result="effect1_foregroundBlur_6_131"/>
</filter>
<radialGradient id="paint0_radial_6_131" cx="0" cy="0" r="1" gradientUnits="userSpaceOnUse" gradientTransform="translate(720 512) rotate(90) scale(667.347 938.457)">
<stop stop-color="#222F7A"/>
<stop offset="1" stop-color="#070B24"/>
</radialGradient>
<linearGradient id="paint1_linear_6_131" x1="1198.22" y1="0" x2="1198.22" y2="1228.8" gradientUnits="userSpaceOnUse">
<stop stop-color="#121214"/>
<stop offset="1" stop-color="#121214" stop-opacity="0"/>
</linearGradient>
<clipPath id="clip0_6_131">
<rect width="1440" height="1024" fill="white"/>
</clipPath>
<clipPath id="clip1_6_131">
<rect width="3195.26" height="1348" fill="white" transform="translate(-878)"/>
</clipPath>
</defs>
</svg>
